<?xml version="1.0" encoding="UTF-8" standalone="no"?>
<svg
   version="1.1"
   id="Layer_1"
   x="0px"
   y="0px"
   viewBox="0 0 122.88 95.95"
   style="enable-background:new 0 0 122.88 95.95"
   xml:space="preserve"
   sodipodi:docname="three-lines-icon.svg"
   inkscape:version="1.2.2 (732a01da63, 2022-12-09)"
   xmlns:inkscape="http://www.inkscape.org/namespaces/inkscape"
   xmlns:sodipodi="http://sodipodi.sourceforge.net/DTD/sodipodi-0.dtd"
   xmlns="http://www.w3.org/2000/svg"
   xmlns:svg="http://www.w3.org/2000/svg"><defs
     id="defs29" /><sodipodi:namedview
     id="namedview27"
     pagecolor="#ffffff"
     bordercolor="#000000"
     borderopacity="0.25"
     inkscape:showpageshadow="2"
     inkscape:pageopacity="0.0"
     inkscape:pagecheckerboard="0"
     inkscape:deskcolor="#d1d1d1"
     showgrid="false"
     inkscape:zoom="8"
     inkscape:cx="69.6875"
     inkscape:cy="41"
     inkscape:window-width="2560"
     inkscape:window-height="1377"
     inkscape:window-x="-8"
     inkscape:window-y="-8"
     inkscape:window-maximized="1"
     inkscape:current-layer="Layer_1" /><style
     type="text/css"
     id="style20">.st0{fill-rule:evenodd;clip-rule:evenodd;}</style><g
     id="g24"><path
       class="st0"
       d="m 8.94,0 h 105 c 4.92,0 8.94,4.02 8.94,8.94 v 0 c 0,4.92 -4.02,8.94 -8.94,8.94 H 8.94 C 4.02,17.88 0,13.86 0,8.94 v 0 C 0,4.02 4.02,0 8.94,0 Z m 0,78.07 h 105 c 4.92,0 8.94,4.02 8.94,8.94 v 0 c 0,4.92 -4.02,8.94 -8.94,8.94 H 8.94 C 4.02,95.95 0,91.93 0,87.01 v 0 c 0,-4.92 4.02,-8.94 8.94,-8.94 z m 0,-39.04 h 105 c 4.92,0 8.94,4.02 8.94,8.94 v 0 c 0,4.92 -4.02,8.94 -8.94,8.94 H 8.94 C 4.02,56.91 0,52.89 0,47.97 v 0 c 0,-4.91 4.02,-8.94 8.94,-8.94 z"
       id="path22"
       style="fill:#f9f9f9" /></g></svg>
